<svg width="692" height="147" viewBox="0 0 692 147" fill="none" xmlns="http://www.w3.org/2000/svg">
<path d="M567.631 61.754L570.188 60.4508L570.363 60.8567L567.631 61.754Z" fill="#FEF9F9"/>
<path d="M571.224 74.187L574.037 73.5751L574.1 74.0117L571.224 74.187Z" fill="#FEF9F9"/>
<path d="M569.288 66.0743L571.91 64.9009L572.064 65.3151L569.288 66.0743Z" fill="#FEF9F9"/>
<path d="M570.4 70.1813L573.119 69.2449L573.234 69.671L570.4 70.1813Z" fill="#FEF9F9"/>
<path d="M552.513 44.8994L553.979 42.4658L554.347 42.7191L552.513 44.8994Z" fill="#FEF9F9"/>
<path d="M559.824 50.6815L561.74 48.5701L562.051 48.8881L559.824 50.6815Z" fill="#FEF9F9"/>
<path d="M556.398 47.4114L558.052 45.0963L558.399 45.3768L556.398 47.4114Z" fill="#FEF9F9"/>
<path d="M562.281 53.9175L564.32 51.9199L564.612 52.2552L562.281 53.9175Z" fill="#FEF9F9"/>
<path d="M502.331 45.0503L500.511 42.8586L500.88 42.6076L502.331 45.0503Z" fill="#FEF9F9"/>
<path d="M496.053 49.9191L493.875 48.0681L494.195 47.7584L496.053 49.9191Z" fill="#FEF9F9"/>
<path d="M499.069 47.4574L497.161 45.3388L497.52 45.0735L499.069 47.4574Z" fill="#FEF9F9"/>
<path d="M493.074 53.1141L490.808 51.3674L491.112 51.043L493.074 53.1141Z" fill="#FEF9F9"/>
<path d="M569.56 94.9323L572.346 95.6552L572.197 96.0714L569.56 94.9323Z" fill="#FEF9F9"/>
<path d="M561.778 108.33L564.155 109.928L563.873 110.271L561.778 108.33Z" fill="#FEF9F9"/>
<path d="M557.854 112.182L560.062 113.998L559.748 114.313L557.854 112.182Z" fill="#FEF9F9"/>
<path d="M553.477 115.667L555.399 117.773L555.042 118.04L553.477 115.667Z" fill="#FEF9F9"/>
<path d="M532.583 123.633L533.117 126.411L532.67 126.458L532.583 123.633Z" fill="#FEF9F9"/>
<path d="M544.299 40.5466L545.253 37.8788L545.664 38.0567L544.299 40.5466Z" fill="#FEF9F9"/>
<path d="M536.43 37.9734L536.794 35.1691L537.234 35.2587L536.43 37.9734Z" fill="#FEF9F9"/>
<path d="M518.112 38.4485L517.273 35.7439L517.712 35.6489L518.112 38.4485Z" fill="#FEF9F9"/>
<path d="M522.136 37.4523L521.589 34.6767L522.035 34.627L522.136 37.4523Z" fill="#FEF9F9"/>
<path d="M514.67 39.3927L513.517 36.8019L513.942 36.6575L514.67 39.3927Z" fill="#FEF9F9"/>
<path d="M511.07 40.3425L509.722 37.844L510.134 37.6687L511.07 40.3425Z" fill="#FEF9F9"/>
<path d="M540.455 122.033L541.635 124.612L541.212 124.761L540.455 122.033Z" fill="#FEF9F9"/>
<path d="M536.842 123.109L537.753 125.791L537.316 125.897L536.842 123.109Z" fill="#FEF9F9"/>
<path d="M509.672 120.397L508.665 123.046L508.258 122.86L509.672 120.397Z" fill="#FEF9F9"/>
<path d="M513.817 122.064L513.002 124.776L512.582 124.618L513.817 122.064Z" fill="#FEF9F9"/>
<path d="M518.05 123.117L517.545 125.9L517.11 125.789L518.05 123.117Z" fill="#FEF9F9"/>
<path d="M522.441 123.919L522.242 126.739L521.798 126.675L522.441 123.919Z" fill="#FEF9F9"/>
<path d="M485.51 94.8241L482.984 96.1856L482.799 95.7838L485.51 94.8241Z" fill="#FEF9F9"/>
<path d="M484.253 90.6916L481.559 91.696L481.433 91.2729L484.253 90.6916Z" fill="#FEF9F9"/>
<path d="M483.464 86.2757L480.694 87.0559L480.604 86.6239L483.464 86.2757Z" fill="#FEF9F9"/>
<path d="M483.217 82.1355L480.368 82.558L480.335 82.1183L483.217 82.1355Z" fill="#FEF9F9"/>
<path d="M562.572 96.7889L570.761 99.2166L569.592 101.586L562.572 96.7889Z" fill="#FEF9F9"/>
<path d="M546.066 113.852L551.387 120.424L549.051 121.718L546.066 113.852Z" fill="#FEF9F9"/>
<path d="M508.641 113.744L505.553 121.572L503.234 120.249L508.641 113.744Z" fill="#FEF9F9"/>
<path d="M488.069 60.9394L485.341 60.0306L485.518 59.6255L488.069 60.9394Z" fill="#FEF9F9"/>
<path d="M486.136 64.978L483.38 64.1538L483.544 63.7433L486.136 64.978Z" fill="#FEF9F9"/>
<path d="M484.542 69.3343L481.717 68.7787L481.839 68.3545L484.542 69.3343Z" fill="#FEF9F9"/>
<path d="M483.478 73.6531L480.609 73.391L480.685 72.9565L483.478 73.6531Z" fill="#FEF9F9"/>
<path d="M495.037 59.8578L487.208 56.4727L488.662 54.2603L495.037 59.8578Z" fill="#FEF9F9"/>
<path d="M571.517 86.8297L574.386 87.0991L574.308 87.5334L571.517 86.8297Z" fill="#FEF9F9"/>
<path d="M546.068 47.2241L549.034 39.3513L551.373 40.6397L546.068 47.2241Z" fill="#FEF9F9"/>
<path d="M571.785 82.687L574.664 82.7997L574.611 83.2376L571.785 82.687Z" fill="#FEF9F9"/>
<path d="M560.458 60.2493L566.94 54.7709L568.35 57.0099L560.458 60.2493Z" fill="#FEF9F9"/>
<path d="M570.697 90.9688L573.525 91.515L573.404 91.9396L570.697 90.9688Z" fill="#FEF9F9"/>
<path d="M492.397 96.2272L485.444 101.117L484.242 98.7635L492.397 96.2272Z" fill="#FEF9F9"/>
<path d="M527.5 52L528.799 34H526.201L527.5 52Z" fill="#FEF9F9"/>
<path d="M493.213 108.605L491.128 110.557L490.844 110.215L493.213 108.605Z" fill="#FEF9F9"/>
<path d="M564.857 104.199L567.375 105.573L567.126 105.94L564.857 104.199Z" fill="#FEF9F9"/>
<path d="M556.274 78.4276L574.853 79.8575L574.87 77.2253L556.274 78.4276Z" fill="#FEF9F9"/>
<path d="M509 47.3667L503.944 40.5961L506.33 39.3926L509 47.3667Z" fill="#FEF9F9"/>
<path d="M544.467 120.642L545.837 123.129L545.427 123.308L544.467 120.642Z" fill="#FEF9F9"/>
<path d="M490.267 104.195L488.044 105.993L487.786 105.632L490.267 104.195Z" fill="#FEF9F9"/>
<path d="M498.816 78.2669L480.199 79.1085L480.269 76.4771L498.816 78.2669Z" fill="#FEF9F9"/>
<path d="M532.209 37.4507L532.335 34.6263L532.781 34.6799L532.209 37.4507Z" fill="#FEF9F9"/>
<path d="M497.085 112.448L495.309 114.674L494.977 114.376L497.085 112.448Z" fill="#FEF9F9"/>
<path d="M527.5 109L528.799 127H526.201L527.5 109Z" fill="#FEF9F9"/>
<path d="M540.367 39.0181L540.984 36.2566L541.415 36.3844L540.367 39.0181Z" fill="#FEF9F9"/>
<path d="M501.626 115.762L500.042 118.123L499.687 117.853L501.626 115.762Z" fill="#FEF9F9"/>
<path d="M13.2021 63.7266H29.8037V67.6328H24.9209V90.0938H32.7334C33.0752 90.0938 33.3804 89.9635 33.6489 89.7031C33.9175 89.4346 34.1209 89.0928 34.2593 88.6777C34.4058 88.2627 34.5116 87.8436 34.5767 87.4204C34.6499 86.9972 34.6865 86.5863 34.6865 86.1875V82.2812H39.0811V94H13.2021V90.0938H17.1084V67.6328H13.2021V63.7266ZM64.5547 84.2344C64.6279 85.1784 64.7826 86.0207 65.0186 86.7612C65.2546 87.5018 65.5394 88.1081 65.873 88.5801C66.2148 89.0521 66.6095 89.4427 67.0571 89.752C67.5047 90.0531 67.9645 90.2687 68.4365 90.3989C68.9085 90.521 69.4131 90.582 69.9502 90.582C71.6673 90.582 73.006 90.2524 73.9663 89.5933C74.9347 88.9259 75.7078 87.9006 76.2856 86.5171L79.5327 87.6401C79.2397 88.4295 78.8654 89.1742 78.4097 89.874C77.9621 90.5658 77.4209 91.2046 76.7861 91.7905C76.1514 92.3765 75.4434 92.881 74.6621 93.3042C73.889 93.7192 73.0142 94.0448 72.0376 94.2808C71.061 94.5168 70.0316 94.6348 68.9492 94.6348C67.346 94.6348 65.8283 94.354 64.396 93.7925C62.9718 93.231 61.7308 92.4497 60.6729 91.4487C59.623 90.4396 58.7889 89.1986 58.1704 87.7256C57.5601 86.2526 57.2549 84.6494 57.2549 82.916C57.2549 81.1826 57.5601 79.5713 58.1704 78.082C58.7889 76.5928 59.623 75.3395 60.6729 74.3223C61.7308 73.2969 62.9718 72.4953 64.396 71.9175C65.8283 71.3397 67.346 71.0508 68.9492 71.0508C70.5524 71.0508 72.0661 71.3397 73.4902 71.9175C74.9225 72.4953 76.1636 73.2969 77.2134 74.3223C78.2713 75.3395 79.1055 76.5928 79.7158 78.082C80.3343 79.5713 80.6436 81.1826 80.6436 82.916L80.3384 84.2344H64.5547ZM64.6401 80.3281H73.2583C73.0467 78.4564 72.5788 77.0933 71.8545 76.2388C71.1302 75.3843 70.1699 74.957 68.9736 74.957C68.3796 74.957 67.8465 75.0547 67.3745 75.25C66.9025 75.4372 66.4793 75.7424 66.105 76.1655C65.7306 76.5806 65.4173 77.138 65.165 77.8379C64.9209 78.5296 64.7459 79.3597 64.6401 80.3281ZM104.774 90.106C105.238 90.4233 105.938 90.582 106.874 90.582C107.712 90.582 108.392 90.5332 108.913 90.4355C109.442 90.3379 109.84 90.1792 110.109 89.9595C110.377 89.7316 110.556 89.4834 110.646 89.2148C110.736 88.9382 110.78 88.5801 110.78 88.1406C110.78 87.6198 110.642 87.1722 110.365 86.7979C110.089 86.4235 109.714 86.1224 109.242 85.8945C108.77 85.6667 108.229 85.4673 107.619 85.2964C107.008 85.1174 106.365 84.9505 105.69 84.7959C105.014 84.6331 104.339 84.4582 103.664 84.271C102.988 84.0757 102.345 83.8234 101.735 83.5142C101.125 83.1968 100.583 82.8265 100.111 82.4033C99.6393 81.972 99.265 81.4146 98.9883 80.731C98.7116 80.0474 98.5732 79.262 98.5732 78.375C98.5732 77.5612 98.6709 76.8206 98.8662 76.1533C99.0615 75.486 99.3219 74.9204 99.6475 74.4565C99.973 73.9845 100.384 73.5736 100.88 73.2236C101.377 72.8737 101.894 72.5929 102.431 72.3813C102.976 72.1698 103.586 71.9989 104.262 71.8687C104.945 71.7384 105.604 71.653 106.239 71.6123C106.874 71.5635 107.566 71.5391 108.314 71.5391C109.942 71.5391 111.362 71.7466 112.575 72.1616C113.795 72.5767 114.756 73.1341 115.456 73.834C115.83 74.1514 116.119 74.5379 116.322 74.9937C116.534 75.4412 116.64 75.9173 116.64 76.4219C116.64 77.3659 116.306 78.1715 115.639 78.8389C114.971 79.5062 114.166 79.8398 113.222 79.8398C112.278 79.8398 111.472 79.5062 110.805 78.8389C110.137 78.1715 109.804 77.3659 109.804 76.4219C109.804 76.0801 109.853 75.7505 109.95 75.4331C109.486 75.1157 108.786 74.957 107.851 74.957C106.703 74.957 105.845 75.0954 105.275 75.3721C104.713 75.6488 104.433 76.1615 104.433 76.9102C104.433 77.3822 104.551 77.8013 104.787 78.1675C105.023 78.5256 105.344 78.8226 105.751 79.0586C106.158 79.2865 106.63 79.5062 107.167 79.7178C107.712 79.9212 108.29 80.0962 108.9 80.2427C109.511 80.381 110.137 80.5519 110.78 80.7554C111.423 80.9588 112.05 81.1663 112.66 81.3779C113.271 81.5895 113.844 81.8703 114.381 82.2202C114.927 82.562 115.403 82.9486 115.81 83.3799C116.216 83.8112 116.538 84.3524 116.774 85.0034C117.01 85.6463 117.128 86.3665 117.128 87.1641C117.128 88.3034 116.937 89.3084 116.554 90.1792C116.18 91.0418 115.675 91.7417 115.041 92.2788C114.414 92.8159 113.633 93.2554 112.697 93.5972C111.761 93.9308 110.788 94.1628 109.779 94.293C108.77 94.4232 107.647 94.4883 106.41 94.4883C103.912 94.4883 101.898 94.0122 100.368 93.0601C98.8459 92.1079 98.085 90.7936 98.085 89.1172C98.085 88.1732 98.4186 87.3675 99.0859 86.7002C99.7533 86.0329 100.559 85.6992 101.503 85.6992C102.447 85.6992 103.253 86.0329 103.92 86.7002C104.587 87.3675 104.921 88.1732 104.921 89.1172C104.921 89.459 104.872 89.7886 104.774 90.106ZM163.241 94V90.0938H167.147V67.6328H163.241V63.7266H175.937C178.891 63.7266 181.206 63.8201 182.882 64.0073C184.567 64.1945 185.877 64.4875 186.813 64.8862C187.757 65.2769 188.624 65.8669 189.413 66.6562C190.121 67.3643 190.654 68.2554 191.012 69.3296C191.378 70.3957 191.562 71.5391 191.562 72.7598C191.562 73.7526 191.431 74.6722 191.171 75.5186C190.919 76.3568 190.556 77.1014 190.084 77.7524C189.621 78.3953 189.047 78.9731 188.363 79.4858C187.688 79.9904 186.939 80.4176 186.117 80.7676C185.295 81.1175 184.384 81.4064 183.383 81.6343C182.39 81.8621 181.361 82.029 180.294 82.1348C179.236 82.2324 178.109 82.2812 176.913 82.2812H174.96V90.0938H179.843V94H163.241ZM174.96 78.375H176.913C180.819 78.375 182.772 76.5846 182.772 73.0039C182.772 72.3854 182.728 71.8239 182.638 71.3193C182.557 70.8148 182.402 70.3265 182.174 69.8545C181.946 69.3825 181.653 68.9878 181.295 68.6704C180.937 68.353 180.469 68.1007 179.892 67.9136C179.314 67.7264 178.646 67.6328 177.89 67.6328H174.96V78.375ZM215.814 84.2344C215.888 85.1784 216.042 86.0207 216.278 86.7612C216.514 87.5018 216.799 88.1081 217.133 88.5801C217.475 89.0521 217.869 89.4427 218.317 89.752C218.764 90.0531 219.224 90.2687 219.696 90.3989C220.168 90.521 220.673 90.582 221.21 90.582C222.927 90.582 224.266 90.2524 225.226 89.5933C226.194 88.9259 226.968 87.9006 227.545 86.5171L230.792 87.6401C230.5 88.4295 230.125 89.1742 229.669 89.874C229.222 90.5658 228.681 91.2046 228.046 91.7905C227.411 92.3765 226.703 92.881 225.922 93.3042C225.149 93.7192 224.274 94.0448 223.297 94.2808C222.321 94.5168 221.291 94.6348 220.209 94.6348C218.606 94.6348 217.088 94.354 215.656 93.7925C214.232 93.231 212.991 92.4497 211.933 91.4487C210.883 90.4396 210.049 89.1986 209.43 87.7256C208.82 86.2526 208.515 84.6494 208.515 82.916C208.515 81.1826 208.82 79.5713 209.43 78.082C210.049 76.5928 210.883 75.3395 211.933 74.3223C212.991 73.2969 214.232 72.4953 215.656 71.9175C217.088 71.3397 218.606 71.0508 220.209 71.0508C221.812 71.0508 223.326 71.3397 224.75 71.9175C226.182 72.4953 227.423 73.2969 228.473 74.3223C229.531 75.3395 230.365 76.5928 230.976 78.082C231.594 79.5713 231.903 81.1826 231.903 82.916L231.598 84.2344H215.814ZM215.9 80.3281H224.518C224.306 78.4564 223.839 77.0933 223.114 76.2388C222.39 75.3843 221.43 74.957 220.233 74.957C219.639 74.957 219.106 75.0547 218.634 75.25C218.162 75.4372 217.739 75.7424 217.365 76.1655C216.99 76.5806 216.677 77.138 216.425 77.8379C216.181 78.5296 216.006 79.3597 215.9 80.3281ZM255.692 66.6562H258.134V71.5391H264.97V75.4453H258.134V88.1406C258.134 88.694 258.288 89.1579 258.598 89.5322C258.915 89.9066 259.411 90.0938 260.087 90.0938C260.844 90.0938 261.487 89.8455 262.016 89.3491C262.545 88.8446 262.878 88.1162 263.017 87.1641L265.946 87.6523C265.824 88.6045 265.588 89.4875 265.238 90.3013C264.896 91.1069 264.449 91.8271 263.896 92.4619C263.342 93.0885 262.654 93.585 261.833 93.9512C261.019 94.3092 260.111 94.4883 259.11 94.4883C256.677 94.4883 254.765 93.9227 253.373 92.7915C251.99 91.6522 251.298 90.1019 251.298 88.1406V75.4453H248.856V71.5391H249.345C250.598 71.5391 251.705 71.181 252.665 70.4648C253.625 69.7487 254.634 68.4792 255.692 66.6562ZM285.988 68.939C285.231 68.174 284.853 67.2503 284.853 66.168C284.853 65.0856 285.231 64.166 285.988 63.4092C286.753 62.6442 287.676 62.2617 288.759 62.2617C289.841 62.2617 290.761 62.6442 291.518 63.4092C292.283 64.166 292.665 65.0856 292.665 66.168C292.665 67.2503 292.283 68.174 291.518 68.939C290.761 69.6958 289.841 70.0742 288.759 70.0742C287.676 70.0742 286.753 69.6958 285.988 68.939ZM282.899 71.5391H292.177V90.0938H294.618V94H282.899V90.0938H285.341V75.4453H282.899V71.5391ZM318.407 66.6562H320.849V71.5391H327.685V75.4453H320.849V88.1406C320.849 88.694 321.003 89.1579 321.312 89.5322C321.63 89.9066 322.126 90.0938 322.802 90.0938C323.559 90.0938 324.201 89.8455 324.73 89.3491C325.259 88.8446 325.593 88.1162 325.731 87.1641L328.661 87.6523C328.539 88.6045 328.303 89.4875 327.953 90.3013C327.611 91.1069 327.164 91.8271 326.61 92.4619C326.057 93.0885 325.369 93.585 324.547 93.9512C323.734 94.3092 322.826 94.4883 321.825 94.4883C319.392 94.4883 317.479 93.9227 316.088 92.7915C314.704 91.6522 314.013 90.1019 314.013 88.1406V75.4453H311.571V71.5391H312.06C313.313 71.5391 314.42 71.181 315.38 70.4648C316.34 69.7487 317.349 68.4792 318.407 66.6562ZM352.792 90.106C353.256 90.4233 353.956 90.582 354.892 90.582C355.73 90.582 356.409 90.5332 356.93 90.4355C357.459 90.3379 357.858 90.1792 358.126 89.9595C358.395 89.7316 358.574 89.4834 358.664 89.2148C358.753 88.9382 358.798 88.5801 358.798 88.1406C358.798 87.6198 358.66 87.1722 358.383 86.7979C358.106 86.4235 357.732 86.1224 357.26 85.8945C356.788 85.6667 356.247 85.4673 355.636 85.2964C355.026 85.1174 354.383 84.9505 353.708 84.7959C353.032 84.6331 352.357 84.4582 351.681 84.271C351.006 84.0757 350.363 83.8234 349.752 83.5142C349.142 83.1968 348.601 82.8265 348.129 82.4033C347.657 81.972 347.283 81.4146 347.006 80.731C346.729 80.0474 346.591 79.262 346.591 78.375C346.591 77.5612 346.688 76.8206 346.884 76.1533C347.079 75.486 347.34 74.9204 347.665 74.4565C347.991 73.9845 348.402 73.5736 348.898 73.2236C349.394 72.8737 349.911 72.5929 350.448 72.3813C350.993 72.1698 351.604 71.9989 352.279 71.8687C352.963 71.7384 353.622 71.653 354.257 71.6123C354.892 71.5635 355.583 71.5391 356.332 71.5391C357.96 71.5391 359.38 71.7466 360.592 72.1616C361.813 72.5767 362.773 73.1341 363.473 73.834C363.847 74.1514 364.136 74.5379 364.34 74.9937C364.551 75.4412 364.657 75.9173 364.657 76.4219C364.657 77.3659 364.324 78.1715 363.656 78.8389C362.989 79.5062 362.183 79.8398 361.239 79.8398C360.295 79.8398 359.49 79.5062 358.822 78.8389C358.155 78.1715 357.821 77.3659 357.821 76.4219C357.821 76.0801 357.87 75.7505 357.968 75.4331C357.504 75.1157 356.804 74.957 355.868 74.957C354.721 74.957 353.862 75.0954 353.292 75.3721C352.731 75.6488 352.45 76.1615 352.45 76.9102C352.45 77.3822 352.568 77.8013 352.804 78.1675C353.04 78.5256 353.362 78.8226 353.769 79.0586C354.175 79.2865 354.647 79.5062 355.185 79.7178C355.73 79.9212 356.308 80.0962 356.918 80.2427C357.528 80.381 358.155 80.5519 358.798 80.7554C359.441 80.9588 360.067 81.1663 360.678 81.3779C361.288 81.5895 361.862 81.8703 362.399 82.2202C362.944 82.562 363.42 82.9486 363.827 83.3799C364.234 83.8112 364.556 84.3524 364.792 85.0034C365.028 85.6463 365.146 86.3665 365.146 87.1641C365.146 88.3034 364.954 89.3084 364.572 90.1792C364.197 91.0418 363.693 91.7417 363.058 92.2788C362.431 92.8159 361.65 93.2554 360.714 93.5972C359.778 93.9308 358.806 94.1628 357.797 94.293C356.788 94.4232 355.665 94.4883 354.428 94.4883C351.929 94.4883 349.915 94.0122 348.385 93.0601C346.863 92.1079 346.103 90.7936 346.103 89.1172C346.103 88.1732 346.436 87.3675 347.104 86.7002C347.771 86.0329 348.576 85.6992 349.521 85.6992C350.465 85.6992 351.27 86.0329 351.938 86.7002C352.605 87.3675 352.938 88.1732 352.938 89.1172C352.938 89.459 352.89 89.7886 352.792 90.106ZM426.396 63.2383C430.668 63.2383 434.086 64.3776 436.649 66.6562C437.699 67.584 438.448 68.5199 438.896 69.4639C439.351 70.3997 439.579 71.5798 439.579 73.0039C439.579 74.0863 439.197 75.0099 438.432 75.7749C437.675 76.5317 436.755 76.9102 435.673 76.9102C434.59 76.9102 433.667 76.5317 432.902 75.7749C432.145 75.0099 431.767 74.0863 431.767 73.0039C431.767 72.4505 431.876 71.9297 432.096 71.4414C432.316 70.945 432.621 70.5137 433.012 70.1475C432.426 69.057 431.632 68.2839 430.631 67.8281C429.639 67.3724 428.389 67.1445 426.884 67.1445C425.899 67.1445 424.984 67.3439 424.137 67.7427C423.299 68.1414 422.571 68.6989 421.952 69.415C421.342 70.1312 420.817 70.9775 420.377 71.9541C419.938 72.9307 419.608 74.0049 419.389 75.1768C419.177 76.3405 419.071 77.5693 419.071 78.8633C419.071 80.141 419.201 81.3698 419.462 82.5498C419.722 83.7298 420.101 84.804 420.597 85.7725C421.094 86.7409 421.675 87.5872 422.343 88.3115C423.01 89.0277 423.775 89.5851 424.638 89.9839C425.508 90.3826 426.42 90.582 427.372 90.582C428.756 90.582 430.041 90.2118 431.229 89.4712C432.426 88.7306 433.415 87.693 434.196 86.3584C434.985 85.0156 435.478 83.4938 435.673 81.793L439.579 82.7695C439.384 83.7217 439.156 84.6087 438.896 85.4307C438.635 86.2445 438.31 87.0583 437.919 87.8721C437.528 88.6777 437.085 89.4061 436.588 90.0571C436.092 90.7082 435.506 91.3145 434.831 91.876C434.155 92.4375 433.41 92.9095 432.597 93.292C431.783 93.6663 430.851 93.9593 429.801 94.1709C428.751 94.3825 427.616 94.4883 426.396 94.4883C424.939 94.4883 423.547 94.3337 422.221 94.0244C420.902 93.7233 419.706 93.3001 418.632 92.7549C417.566 92.2096 416.581 91.5586 415.678 90.8018C414.774 90.0449 413.993 89.2108 413.334 88.2993C412.675 87.3797 412.113 86.4072 411.649 85.3818C411.194 84.3483 410.852 83.2863 410.624 82.1958C410.396 81.0972 410.282 79.9863 410.282 78.8633C410.282 77.7402 410.396 76.6335 410.624 75.543C410.852 74.4443 411.194 73.3823 411.649 72.3569C412.113 71.3234 412.675 70.3509 413.334 69.4395C413.993 68.5199 414.774 67.6816 415.678 66.9248C416.581 66.168 417.566 65.5169 418.632 64.9717C419.706 64.4264 420.902 64.0033 422.221 63.7021C423.547 63.3929 424.939 63.2383 426.396 63.2383ZM477.528 79.2905V90.0938H479.97V94H472.365L471.278 91.4609C470.448 92.6491 469.484 93.4629 468.385 93.9023C467.295 94.3418 465.769 94.5615 463.808 94.5615C462.79 94.5615 461.842 94.3825 460.963 94.0244C460.093 93.6745 459.348 93.1943 458.729 92.584C458.119 91.9736 457.639 91.2412 457.289 90.3867C456.947 89.5322 456.776 88.6167 456.776 87.6401C456.776 85.9556 457.436 84.5599 458.754 83.4531C460.072 82.3382 461.757 81.7808 463.808 81.7808C465.46 81.7808 466.827 81.9395 467.909 82.2568C468.992 82.5661 469.919 83.0625 470.692 83.7461V78.5703C470.692 77.8379 470.591 77.2275 470.387 76.7393C470.192 76.2428 469.895 75.8644 469.496 75.604C469.097 75.3354 468.65 75.1483 468.153 75.0425C467.657 74.9367 467.063 74.8838 466.371 74.8838C465.818 74.8838 465.317 75.0018 464.87 75.2378C465.122 75.7668 465.248 76.3242 465.248 76.9102C465.248 77.9925 464.866 78.9162 464.101 79.6812C463.344 80.438 462.424 80.8164 461.342 80.8164C460.259 80.8164 459.336 80.438 458.571 79.6812C457.814 78.9162 457.436 77.9925 457.436 76.9102C457.436 76.3568 457.541 75.8359 457.753 75.3477C457.973 74.8594 458.274 74.4321 458.656 74.0659C458.982 73.7241 459.319 73.4189 459.669 73.1504C460.019 72.8737 460.459 72.6011 460.988 72.3325C461.525 72.0558 462.107 71.828 462.733 71.6489C463.36 71.4699 464.109 71.3275 464.979 71.2217C465.858 71.1077 466.819 71.0508 467.86 71.0508C469.211 71.0508 470.481 71.2502 471.669 71.6489C472.857 72.0477 473.882 72.6011 474.745 73.3091C475.608 74.0171 476.287 74.8879 476.784 75.9214C477.28 76.9549 477.528 78.078 477.528 79.2905ZM470.692 88.5801V86.8955C470.188 86.4154 469.618 86.0125 468.983 85.687C468.357 85.3534 467.775 85.1865 467.238 85.1865C466.082 85.1865 465.268 85.3818 464.796 85.7725C464.324 86.1549 464.088 86.7775 464.088 87.6401C464.088 88.6737 464.292 89.4346 464.699 89.9229C465.106 90.4111 465.862 90.6553 466.969 90.6553C467.596 90.6553 468.247 90.4559 468.922 90.0571C469.606 89.6502 470.196 89.1579 470.692 88.5801ZM505.211 94.5615C503.307 94.5615 501.692 94.0732 500.365 93.0967C499.039 92.1201 498.05 90.757 497.399 89.0073C496.756 87.2576 496.435 85.1743 496.435 82.7573C496.435 80.9914 496.662 79.376 497.118 77.9111C497.582 76.4463 498.225 75.2134 499.047 74.2124C499.877 73.2033 500.874 72.4261 502.038 71.8809C503.209 71.3275 504.491 71.0508 505.883 71.0508C506.583 71.0508 507.242 71.1159 507.86 71.2461C508.479 71.3682 509.004 71.5228 509.435 71.71C509.875 71.8971 510.29 72.1291 510.68 72.4058C511.071 72.6825 511.384 72.9429 511.62 73.187C511.864 73.4312 512.1 73.7038 512.328 74.0049V67.6328H509.887V63.7266H519.164V90.0938H521.605V94H514.354L512.877 91.168C512.56 91.6074 512.202 92.0103 511.803 92.3765C510.192 93.8332 507.995 94.5615 505.211 94.5615ZM512.328 78.1431C511.4 76.4341 510.139 75.5796 508.544 75.5796C506.933 75.5796 505.732 76.2103 504.943 77.4717C504.162 78.7331 503.771 80.5234 503.771 82.8428C503.771 83.9333 503.897 84.9424 504.149 85.8701C504.41 86.7897 504.752 87.5547 505.175 88.165C505.606 88.7754 506.098 89.2515 506.652 89.5933C507.205 89.9269 507.783 90.0938 508.385 90.0938C509.199 90.0938 509.919 89.87 510.546 89.4224C511.181 88.9666 511.775 88.2952 512.328 87.4082V78.1431ZM538.827 71.5391H546.408L547.946 74.5054C549.386 72.2023 551.425 71.0508 554.062 71.0508C555.827 71.0508 557.227 71.596 558.261 72.6865C559.302 73.7689 559.823 75.1768 559.823 76.9102C559.823 77.9925 559.441 78.9162 558.676 79.6812C557.919 80.438 556.999 80.8164 555.917 80.8164C554.835 80.8164 553.911 80.438 553.146 79.6812C552.389 78.9162 552.011 77.9925 552.011 76.9102C552.011 76.4707 552.08 76.0475 552.218 75.6406C551.999 75.5104 551.767 75.4453 551.522 75.4453C550.977 75.4453 550.412 75.8034 549.826 76.5195C549.248 77.2275 548.69 78.2896 548.153 79.7056L548.104 90.0938H553.476V94H538.827V90.0938H541.269V75.4453H538.827V71.5391ZM596.796 79.2905V90.0938H599.237V94H591.632L590.546 91.4609C589.716 92.6491 588.751 93.4629 587.653 93.9023C586.562 94.3418 585.036 94.5615 583.075 94.5615C582.058 94.5615 581.11 94.3825 580.231 94.0244C579.36 93.6745 578.616 93.1943 577.997 92.584C577.387 91.9736 576.907 91.2412 576.557 90.3867C576.215 89.5322 576.044 88.6167 576.044 87.6401C576.044 85.9556 576.703 84.5599 578.021 83.4531C579.34 82.3382 581.024 81.7808 583.075 81.7808C584.727 81.7808 586.094 81.9395 587.177 82.2568C588.259 82.5661 589.187 83.0625 589.96 83.7461V78.5703C589.96 77.8379 589.858 77.2275 589.655 76.7393C589.459 76.2428 589.162 75.8644 588.764 75.604C588.365 75.3354 587.917 75.1483 587.421 75.0425C586.924 74.9367 586.33 74.8838 585.639 74.8838C585.085 74.8838 584.585 75.0018 584.137 75.2378C584.389 75.7668 584.516 76.3242 584.516 76.9102C584.516 77.9925 584.133 78.9162 583.368 79.6812C582.611 80.438 581.692 80.8164 580.609 80.8164C579.527 80.8164 578.603 80.438 577.838 79.6812C577.082 78.9162 576.703 77.9925 576.703 76.9102C576.703 76.3568 576.809 75.8359 577.021 75.3477C577.24 74.8594 577.541 74.4321 577.924 74.0659C578.249 73.7241 578.587 73.4189 578.937 73.1504C579.287 72.8737 579.726 72.6011 580.255 72.3325C580.792 72.0558 581.374 71.828 582.001 71.6489C582.628 71.4699 583.376 71.3275 584.247 71.2217C585.126 71.1077 586.086 71.0508 587.128 71.0508C588.479 71.0508 589.748 71.2502 590.937 71.6489C592.125 72.0477 593.15 72.6011 594.013 73.3091C594.875 74.0171 595.555 74.8879 596.051 75.9214C596.548 76.9549 596.796 78.078 596.796 79.2905ZM589.96 88.5801V86.8955C589.455 86.4154 588.886 86.0125 588.251 85.687C587.624 85.3534 587.042 85.1865 586.505 85.1865C585.35 85.1865 584.536 85.3818 584.064 85.7725C583.592 86.1549 583.356 86.7775 583.356 87.6401C583.356 88.6737 583.559 89.4346 583.966 89.9229C584.373 90.4111 585.13 90.6553 586.237 90.6553C586.863 90.6553 587.514 90.4559 588.19 90.0571C588.874 89.6502 589.464 89.1579 589.96 88.5801ZM632.548 71.0508C633.687 71.0508 634.684 71.2054 635.539 71.5146C636.393 71.8239 637.093 72.2511 637.638 72.7964C638.183 73.3335 638.623 74.0212 638.957 74.8594C639.298 75.6895 639.534 76.5846 639.665 77.5449C639.803 78.4971 639.872 79.5876 639.872 80.8164V90.0938H642.313V94H630.595V90.0938H633.036V80.3281C633.036 79.0423 632.918 78.0413 632.682 77.3252C632.454 76.609 632.121 76.1167 631.681 75.8481C631.25 75.5796 630.66 75.4453 629.911 75.4453C629.228 75.4453 628.528 75.7342 627.812 76.312C627.095 76.8898 626.416 77.6955 625.773 78.729L625.712 90.0938H628.153V94H616.435V90.0938H618.876V75.4453H616.435V71.5391H624.015L625.724 74.8472C626.025 74.3019 626.371 73.8136 626.762 73.3823C627.16 72.9429 627.632 72.5441 628.178 72.186C628.731 71.8198 629.378 71.5391 630.119 71.3438C630.859 71.1484 631.669 71.0508 632.548 71.0508ZM666.444 90.106C666.908 90.4233 667.608 90.582 668.544 90.582C669.382 90.582 670.062 90.5332 670.583 90.4355C671.111 90.3379 671.51 90.1792 671.779 89.9595C672.047 89.7316 672.226 89.4834 672.316 89.2148C672.405 88.9382 672.45 88.5801 672.45 88.1406C672.45 87.6198 672.312 87.1722 672.035 86.7979C671.758 86.4235 671.384 86.1224 670.912 85.8945C670.44 85.6667 669.899 85.4673 669.289 85.2964C668.678 85.1174 668.035 84.9505 667.36 84.7959C666.684 84.6331 666.009 84.4582 665.333 84.271C664.658 84.0757 664.015 83.8234 663.405 83.5142C662.794 83.1968 662.253 82.8265 661.781 82.4033C661.309 81.972 660.935 81.4146 660.658 80.731C660.382 80.0474 660.243 79.262 660.243 78.375C660.243 77.5612 660.341 76.8206 660.536 76.1533C660.731 75.486 660.992 74.9204 661.317 74.4565C661.643 73.9845 662.054 73.5736 662.55 73.2236C663.047 72.8737 663.563 72.5929 664.101 72.3813C664.646 72.1698 665.256 71.9989 665.932 71.8687C666.615 71.7384 667.274 71.653 667.909 71.6123C668.544 71.5635 669.236 71.5391 669.984 71.5391C671.612 71.5391 673.032 71.7466 674.245 72.1616C675.465 72.5767 676.426 73.1341 677.125 73.834C677.5 74.1514 677.789 74.5379 677.992 74.9937C678.204 75.4412 678.31 75.9173 678.31 76.4219C678.31 77.3659 677.976 78.1715 677.309 78.8389C676.641 79.5062 675.836 79.8398 674.892 79.8398C673.948 79.8398 673.142 79.5062 672.475 78.8389C671.807 78.1715 671.474 77.3659 671.474 76.4219C671.474 76.0801 671.522 75.7505 671.62 75.4331C671.156 75.1157 670.456 74.957 669.521 74.957C668.373 74.957 667.514 75.0954 666.945 75.3721C666.383 75.6488 666.103 76.1615 666.103 76.9102C666.103 77.3822 666.221 77.8013 666.457 78.1675C666.693 78.5256 667.014 78.8226 667.421 79.0586C667.828 79.2865 668.3 79.5062 668.837 79.7178C669.382 79.9212 669.96 80.0962 670.57 80.2427C671.181 80.381 671.807 80.5519 672.45 80.7554C673.093 80.9588 673.72 81.1663 674.33 81.3779C674.94 81.5895 675.514 81.8703 676.051 82.2202C676.597 82.562 677.073 82.9486 677.479 83.3799C677.886 83.8112 678.208 84.3524 678.444 85.0034C678.68 85.6463 678.798 86.3665 678.798 87.1641C678.798 88.3034 678.607 89.3084 678.224 90.1792C677.85 91.0418 677.345 91.7417 676.71 92.2788C676.084 92.8159 675.303 93.2554 674.367 93.5972C673.431 93.9308 672.458 94.1628 671.449 94.293C670.44 94.4232 669.317 94.4883 668.08 94.4883C665.582 94.4883 663.568 94.0122 662.038 93.0601C660.516 92.1079 659.755 90.7936 659.755 89.1172C659.755 88.1732 660.089 87.3675 660.756 86.7002C661.423 86.0329 662.229 85.6992 663.173 85.6992C664.117 85.6992 664.923 86.0329 665.59 86.7002C666.257 87.3675 666.591 88.1732 666.591 89.1172C666.591 89.459 666.542 89.7886 666.444 90.106Z" fill="white"/>
</svg>
