<svg width="692" height="147" viewBox="0 0 692 147" fill="none" xmlns="http://www.w3.org/2000/svg">
<rect width="692" height="147" fill="#1E1E1E"/>
<rect width="692" height="147" fill="white"/>
<path d="M567.631 61.754L570.188 60.4508L570.363 60.8567L567.631 61.754Z" fill="black"/>
<path d="M571.224 74.187L574.037 73.5751L574.1 74.0117L571.224 74.187Z" fill="black"/>
<path d="M569.288 66.0743L571.91 64.9009L572.064 65.3151L569.288 66.0743Z" fill="black"/>
<path d="M570.4 70.1813L573.119 69.2449L573.234 69.671L570.4 70.1813Z" fill="black"/>
<path d="M552.513 44.8994L553.979 42.4658L554.347 42.7191L552.513 44.8994Z" fill="black"/>
<path d="M559.824 50.6815L561.74 48.5701L562.051 48.8881L559.824 50.6815Z" fill="black"/>
<path d="M556.398 47.4114L558.052 45.0963L558.399 45.3768L556.398 47.4114Z" fill="black"/>
<path d="M562.281 53.9175L564.32 51.9199L564.612 52.2552L562.281 53.9175Z" fill="black"/>
<path d="M502.331 45.0503L500.511 42.8586L500.88 42.6076L502.331 45.0503Z" fill="black"/>
<path d="M496.053 49.9191L493.875 48.0681L494.195 47.7584L496.053 49.9191Z" fill="black"/>
<path d="M499.069 47.4574L497.161 45.3388L497.52 45.0735L499.069 47.4574Z" fill="black"/>
<path d="M493.074 53.1141L490.808 51.3674L491.112 51.043L493.074 53.1141Z" fill="black"/>
<path d="M569.56 94.9323L572.346 95.6552L572.197 96.0714L569.56 94.9323Z" fill="black"/>
<path d="M561.778 108.33L564.155 109.928L563.873 110.271L561.778 108.33Z" fill="black"/>
<path d="M557.854 112.182L560.062 113.998L559.748 114.313L557.854 112.182Z" fill="black"/>
<path d="M553.477 115.667L555.399 117.773L555.042 118.04L553.477 115.667Z" fill="black"/>
<path d="M532.583 123.633L533.117 126.411L532.67 126.458L532.583 123.633Z" fill="black"/>
<path d="M544.299 40.5466L545.253 37.8788L545.664 38.0567L544.299 40.5466Z" fill="black"/>
<path d="M536.43 37.9734L536.794 35.1691L537.234 35.2587L536.43 37.9734Z" fill="black"/>
<path d="M518.112 38.4485L517.273 35.7439L517.712 35.6489L518.112 38.4485Z" fill="black"/>
<path d="M522.136 37.4523L521.589 34.6767L522.035 34.627L522.136 37.4523Z" fill="black"/>
<path d="M514.67 39.3927L513.517 36.8019L513.942 36.6575L514.67 39.3927Z" fill="black"/>
<path d="M511.07 40.3425L509.722 37.844L510.134 37.6687L511.07 40.3425Z" fill="black"/>
<path d="M540.455 122.033L541.635 124.612L541.212 124.761L540.455 122.033Z" fill="black"/>
<path d="M536.842 123.109L537.753 125.791L537.316 125.897L536.842 123.109Z" fill="black"/>
<path d="M509.672 120.397L508.665 123.046L508.258 122.86L509.672 120.397Z" fill="black"/>
<path d="M513.817 122.064L513.002 124.776L512.582 124.618L513.817 122.064Z" fill="black"/>
<path d="M518.05 123.117L517.545 125.9L517.11 125.789L518.05 123.117Z" fill="black"/>
<path d="M522.441 123.919L522.242 126.739L521.798 126.675L522.441 123.919Z" fill="black"/>
<path d="M485.51 94.8241L482.984 96.1856L482.799 95.7838L485.51 94.8241Z" fill="black"/>
<path d="M484.253 90.6916L481.559 91.696L481.433 91.2729L484.253 90.6916Z" fill="black"/>
<path d="M483.464 86.2757L480.694 87.0559L480.604 86.6239L483.464 86.2757Z" fill="black"/>
<path d="M483.217 82.1355L480.368 82.558L480.335 82.1183L483.217 82.1355Z" fill="black"/>
<path d="M562.572 96.7889L570.761 99.2166L569.592 101.586L562.572 96.7889Z" fill="black"/>
<path d="M546.066 113.852L551.387 120.424L549.051 121.718L546.066 113.852Z" fill="black"/>
<path d="M508.641 113.744L505.553 121.572L503.234 120.249L508.641 113.744Z" fill="black"/>
<path d="M488.069 60.9394L485.341 60.0306L485.518 59.6255L488.069 60.9394Z" fill="black"/>
<path d="M486.136 64.978L483.38 64.1538L483.544 63.7433L486.136 64.978Z" fill="black"/>
<path d="M484.542 69.3343L481.717 68.7787L481.839 68.3545L484.542 69.3343Z" fill="black"/>
<path d="M483.478 73.6531L480.609 73.391L480.685 72.9565L483.478 73.6531Z" fill="black"/>
<path d="M495.037 59.8578L487.208 56.4727L488.662 54.2603L495.037 59.8578Z" fill="black"/>
<path d="M571.517 86.8297L574.386 87.0991L574.308 87.5334L571.517 86.8297Z" fill="black"/>
<path d="M546.068 47.2241L549.034 39.3513L551.373 40.6397L546.068 47.2241Z" fill="black"/>
<path d="M571.785 82.687L574.664 82.7997L574.611 83.2376L571.785 82.687Z" fill="black"/>
<path d="M560.458 60.2493L566.94 54.7709L568.35 57.0099L560.458 60.2493Z" fill="black"/>
<path d="M570.697 90.9688L573.525 91.515L573.404 91.9396L570.697 90.9688Z" fill="black"/>
<path d="M492.397 96.2272L485.444 101.117L484.242 98.7635L492.397 96.2272Z" fill="black"/>
<path d="M527.5 52L528.799 34H526.201L527.5 52Z" fill="black"/>
<path d="M493.213 108.605L491.128 110.557L490.844 110.215L493.213 108.605Z" fill="black"/>
<path d="M564.857 104.199L567.375 105.573L567.126 105.94L564.857 104.199Z" fill="black"/>
<path d="M556.274 78.4276L574.853 79.8575L574.87 77.2253L556.274 78.4276Z" fill="black"/>
<path d="M509 47.3667L503.944 40.5961L506.33 39.3926L509 47.3667Z" fill="black"/>
<path d="M544.467 120.642L545.837 123.129L545.427 123.308L544.467 120.642Z" fill="black"/>
<path d="M490.267 104.195L488.044 105.993L487.786 105.632L490.267 104.195Z" fill="black"/>
<path d="M498.816 78.2669L480.199 79.1085L480.269 76.4771L498.816 78.2669Z" fill="black"/>
<path d="M532.209 37.4507L532.335 34.6263L532.781 34.6799L532.209 37.4507Z" fill="black"/>
<path d="M497.085 112.448L495.309 114.674L494.977 114.376L497.085 112.448Z" fill="black"/>
<path d="M527.5 109L528.799 127H526.201L527.5 109Z" fill="black"/>
<path d="M540.367 39.0181L540.984 36.2566L541.415 36.3844L540.367 39.0181Z" fill="black"/>
<path d="M501.626 115.762L500.042 118.123L499.687 117.853L501.626 115.762Z" fill="black"/>
<path d="M13.2021 58.7266H29.8037V62.6328H24.9209V85.0938H32.7334C33.0752 85.0938 33.3804 84.9635 33.6489 84.7031C33.9175 84.4346 34.1209 84.0928 34.2593 83.6777C34.4058 83.2627 34.5116 82.8436 34.5767 82.4204C34.6499 81.9972 34.6865 81.5863 34.6865 81.1875V77.2812H39.0811V89H13.2021V85.0938H17.1084V62.6328H13.2021V58.7266ZM64.5547 79.2344C64.6279 80.1784 64.7826 81.0207 65.0186 81.7612C65.2546 82.5018 65.5394 83.1081 65.873 83.5801C66.2148 84.0521 66.6095 84.4427 67.0571 84.752C67.5047 85.0531 67.9645 85.2687 68.4365 85.3989C68.9085 85.521 69.4131 85.582 69.9502 85.582C71.6673 85.582 73.006 85.2524 73.9663 84.5933C74.9347 83.9259 75.7078 82.9006 76.2856 81.5171L79.5327 82.6401C79.2397 83.4295 78.8654 84.1742 78.4097 84.874C77.9621 85.5658 77.4209 86.2046 76.7861 86.7905C76.1514 87.3765 75.4434 87.881 74.6621 88.3042C73.889 88.7192 73.0142 89.0448 72.0376 89.2808C71.061 89.5168 70.0316 89.6348 68.9492 89.6348C67.346 89.6348 65.8283 89.354 64.396 88.7925C62.9718 88.231 61.7308 87.4497 60.6729 86.4487C59.623 85.4396 58.7889 84.1986 58.1704 82.7256C57.5601 81.2526 57.2549 79.6494 57.2549 77.916C57.2549 76.1826 57.5601 74.5713 58.1704 73.082C58.7889 71.5928 59.623 70.3395 60.6729 69.3223C61.7308 68.2969 62.9718 67.4953 64.396 66.9175C65.8283 66.3397 67.346 66.0508 68.9492 66.0508C70.5524 66.0508 72.0661 66.3397 73.4902 66.9175C74.9225 67.4953 76.1636 68.2969 77.2134 69.3223C78.2713 70.3395 79.1055 71.5928 79.7158 73.082C80.3343 74.5713 80.6436 76.1826 80.6436 77.916L80.3384 79.2344H64.5547ZM64.6401 75.3281H73.2583C73.0467 73.4564 72.5788 72.0933 71.8545 71.2388C71.1302 70.3843 70.1699 69.957 68.9736 69.957C68.3796 69.957 67.8465 70.0547 67.3745 70.25C66.9025 70.4372 66.4793 70.7424 66.105 71.1655C65.7306 71.5806 65.4173 72.138 65.165 72.8379C64.9209 73.5296 64.7459 74.3597 64.6401 75.3281ZM104.774 85.106C105.238 85.4233 105.938 85.582 106.874 85.582C107.712 85.582 108.392 85.5332 108.913 85.4355C109.442 85.3379 109.84 85.1792 110.109 84.9595C110.377 84.7316 110.556 84.4834 110.646 84.2148C110.736 83.9382 110.78 83.5801 110.78 83.1406C110.78 82.6198 110.642 82.1722 110.365 81.7979C110.089 81.4235 109.714 81.1224 109.242 80.8945C108.77 80.6667 108.229 80.4673 107.619 80.2964C107.008 80.1174 106.365 79.9505 105.69 79.7959C105.014 79.6331 104.339 79.4582 103.664 79.271C102.988 79.0757 102.345 78.8234 101.735 78.5142C101.125 78.1968 100.583 77.8265 100.111 77.4033C99.6393 76.972 99.265 76.4146 98.9883 75.731C98.7116 75.0474 98.5732 74.262 98.5732 73.375C98.5732 72.5612 98.6709 71.8206 98.8662 71.1533C99.0615 70.486 99.3219 69.9204 99.6475 69.4565C99.973 68.9845 100.384 68.5736 100.88 68.2236C101.377 67.8737 101.894 67.5929 102.431 67.3813C102.976 67.1698 103.586 66.9989 104.262 66.8687C104.945 66.7384 105.604 66.653 106.239 66.6123C106.874 66.5635 107.566 66.5391 108.314 66.5391C109.942 66.5391 111.362 66.7466 112.575 67.1616C113.795 67.5767 114.756 68.1341 115.456 68.834C115.83 69.1514 116.119 69.5379 116.322 69.9937C116.534 70.4412 116.64 70.9173 116.64 71.4219C116.64 72.3659 116.306 73.1715 115.639 73.8389C114.971 74.5062 114.166 74.8398 113.222 74.8398C112.278 74.8398 111.472 74.5062 110.805 73.8389C110.137 73.1715 109.804 72.3659 109.804 71.4219C109.804 71.0801 109.853 70.7505 109.95 70.4331C109.486 70.1157 108.786 69.957 107.851 69.957C106.703 69.957 105.845 70.0954 105.275 70.3721C104.713 70.6488 104.433 71.1615 104.433 71.9102C104.433 72.3822 104.551 72.8013 104.787 73.1675C105.023 73.5256 105.344 73.8226 105.751 74.0586C106.158 74.2865 106.63 74.5062 107.167 74.7178C107.712 74.9212 108.29 75.0962 108.9 75.2427C109.511 75.381 110.137 75.5519 110.78 75.7554C111.423 75.9588 112.05 76.1663 112.66 76.3779C113.271 76.5895 113.844 76.8703 114.381 77.2202C114.927 77.562 115.403 77.9486 115.81 78.3799C116.216 78.8112 116.538 79.3524 116.774 80.0034C117.01 80.6463 117.128 81.3665 117.128 82.1641C117.128 83.3034 116.937 84.3084 116.554 85.1792C116.18 86.0418 115.675 86.7417 115.041 87.2788C114.414 87.8159 113.633 88.2554 112.697 88.5972C111.761 88.9308 110.788 89.1628 109.779 89.293C108.77 89.4232 107.647 89.4883 106.41 89.4883C103.912 89.4883 101.898 89.0122 100.368 88.0601C98.8459 87.1079 98.085 85.7936 98.085 84.1172C98.085 83.1732 98.4186 82.3675 99.0859 81.7002C99.7533 81.0329 100.559 80.6992 101.503 80.6992C102.447 80.6992 103.253 81.0329 103.92 81.7002C104.587 82.3675 104.921 83.1732 104.921 84.1172C104.921 84.459 104.872 84.7886 104.774 85.106ZM163.241 89V85.0938H167.147V62.6328H163.241V58.7266H175.937C178.891 58.7266 181.206 58.8201 182.882 59.0073C184.567 59.1945 185.877 59.4875 186.813 59.8862C187.757 60.2769 188.624 60.8669 189.413 61.6562C190.121 62.3643 190.654 63.2554 191.012 64.3296C191.378 65.3957 191.562 66.5391 191.562 67.7598C191.562 68.7526 191.431 69.6722 191.171 70.5186C190.919 71.3568 190.556 72.1014 190.084 72.7524C189.621 73.3953 189.047 73.9731 188.363 74.4858C187.688 74.9904 186.939 75.4176 186.117 75.7676C185.295 76.1175 184.384 76.4064 183.383 76.6343C182.39 76.8621 181.361 77.029 180.294 77.1348C179.236 77.2324 178.109 77.2812 176.913 77.2812H174.96V85.0938H179.843V89H163.241ZM174.96 73.375H176.913C180.819 73.375 182.772 71.5846 182.772 68.0039C182.772 67.3854 182.728 66.8239 182.638 66.3193C182.557 65.8148 182.402 65.3265 182.174 64.8545C181.946 64.3825 181.653 63.9878 181.295 63.6704C180.937 63.353 180.469 63.1007 179.892 62.9136C179.314 62.7264 178.646 62.6328 177.89 62.6328H174.96V73.375ZM215.814 79.2344C215.888 80.1784 216.042 81.0207 216.278 81.7612C216.514 82.5018 216.799 83.1081 217.133 83.5801C217.475 84.0521 217.869 84.4427 218.317 84.752C218.764 85.0531 219.224 85.2687 219.696 85.3989C220.168 85.521 220.673 85.582 221.21 85.582C222.927 85.582 224.266 85.2524 225.226 84.5933C226.194 83.9259 226.968 82.9006 227.545 81.5171L230.792 82.6401C230.5 83.4295 230.125 84.1742 229.669 84.874C229.222 85.5658 228.681 86.2046 228.046 86.7905C227.411 87.3765 226.703 87.881 225.922 88.3042C225.149 88.7192 224.274 89.0448 223.297 89.2808C222.321 89.5168 221.291 89.6348 220.209 89.6348C218.606 89.6348 217.088 89.354 215.656 88.7925C214.232 88.231 212.991 87.4497 211.933 86.4487C210.883 85.4396 210.049 84.1986 209.43 82.7256C208.82 81.2526 208.515 79.6494 208.515 77.916C208.515 76.1826 208.82 74.5713 209.43 73.082C210.049 71.5928 210.883 70.3395 211.933 69.3223C212.991 68.2969 214.232 67.4953 215.656 66.9175C217.088 66.3397 218.606 66.0508 220.209 66.0508C221.812 66.0508 223.326 66.3397 224.75 66.9175C226.182 67.4953 227.423 68.2969 228.473 69.3223C229.531 70.3395 230.365 71.5928 230.976 73.082C231.594 74.5713 231.903 76.1826 231.903 77.916L231.598 79.2344H215.814ZM215.9 75.3281H224.518C224.306 73.4564 223.839 72.0933 223.114 71.2388C222.39 70.3843 221.43 69.957 220.233 69.957C219.639 69.957 219.106 70.0547 218.634 70.25C218.162 70.4372 217.739 70.7424 217.365 71.1655C216.99 71.5806 216.677 72.138 216.425 72.8379C216.181 73.5296 216.006 74.3597 215.9 75.3281ZM255.692 61.6562H258.134V66.5391H264.97V70.4453H258.134V83.1406C258.134 83.694 258.288 84.1579 258.598 84.5322C258.915 84.9066 259.411 85.0938 260.087 85.0938C260.844 85.0938 261.487 84.8455 262.016 84.3491C262.545 83.8446 262.878 83.1162 263.017 82.1641L265.946 82.6523C265.824 83.6045 265.588 84.4875 265.238 85.3013C264.896 86.1069 264.449 86.8271 263.896 87.4619C263.342 88.0885 262.654 88.585 261.833 88.9512C261.019 89.3092 260.111 89.4883 259.11 89.4883C256.677 89.4883 254.765 88.9227 253.373 87.7915C251.99 86.6522 251.298 85.1019 251.298 83.1406V70.4453H248.856V66.5391H249.345C250.598 66.5391 251.705 66.181 252.665 65.4648C253.625 64.7487 254.634 63.4792 255.692 61.6562ZM285.988 63.939C285.231 63.174 284.853 62.2503 284.853 61.168C284.853 60.0856 285.231 59.166 285.988 58.4092C286.753 57.6442 287.676 57.2617 288.759 57.2617C289.841 57.2617 290.761 57.6442 291.518 58.4092C292.283 59.166 292.665 60.0856 292.665 61.168C292.665 62.2503 292.283 63.174 291.518 63.939C290.761 64.6958 289.841 65.0742 288.759 65.0742C287.676 65.0742 286.753 64.6958 285.988 63.939ZM282.899 66.5391H292.177V85.0938H294.618V89H282.899V85.0938H285.341V70.4453H282.899V66.5391ZM318.407 61.6562H320.849V66.5391H327.685V70.4453H320.849V83.1406C320.849 83.694 321.003 84.1579 321.312 84.5322C321.63 84.9066 322.126 85.0938 322.802 85.0938C323.559 85.0938 324.201 84.8455 324.73 84.3491C325.259 83.8446 325.593 83.1162 325.731 82.1641L328.661 82.6523C328.539 83.6045 328.303 84.4875 327.953 85.3013C327.611 86.1069 327.164 86.8271 326.61 87.4619C326.057 88.0885 325.369 88.585 324.547 88.9512C323.734 89.3092 322.826 89.4883 321.825 89.4883C319.392 89.4883 317.479 88.9227 316.088 87.7915C314.704 86.6522 314.013 85.1019 314.013 83.1406V70.4453H311.571V66.5391H312.06C313.313 66.5391 314.42 66.181 315.38 65.4648C316.34 64.7487 317.349 63.4792 318.407 61.6562ZM352.792 85.106C353.256 85.4233 353.956 85.582 354.892 85.582C355.73 85.582 356.409 85.5332 356.93 85.4355C357.459 85.3379 357.858 85.1792 358.126 84.9595C358.395 84.7316 358.574 84.4834 358.664 84.2148C358.753 83.9382 358.798 83.5801 358.798 83.1406C358.798 82.6198 358.66 82.1722 358.383 81.7979C358.106 81.4235 357.732 81.1224 357.26 80.8945C356.788 80.6667 356.247 80.4673 355.636 80.2964C355.026 80.1174 354.383 79.9505 353.708 79.7959C353.032 79.6331 352.357 79.4582 351.681 79.271C351.006 79.0757 350.363 78.8234 349.752 78.5142C349.142 78.1968 348.601 77.8265 348.129 77.4033C347.657 76.972 347.283 76.4146 347.006 75.731C346.729 75.0474 346.591 74.262 346.591 73.375C346.591 72.5612 346.688 71.8206 346.884 71.1533C347.079 70.486 347.34 69.9204 347.665 69.4565C347.991 68.9845 348.402 68.5736 348.898 68.2236C349.394 67.8737 349.911 67.5929 350.448 67.3813C350.993 67.1698 351.604 66.9989 352.279 66.8687C352.963 66.7384 353.622 66.653 354.257 66.6123C354.892 66.5635 355.583 66.5391 356.332 66.5391C357.96 66.5391 359.38 66.7466 360.592 67.1616C361.813 67.5767 362.773 68.1341 363.473 68.834C363.847 69.1514 364.136 69.5379 364.34 69.9937C364.551 70.4412 364.657 70.9173 364.657 71.4219C364.657 72.3659 364.324 73.1715 363.656 73.8389C362.989 74.5062 362.183 74.8398 361.239 74.8398C360.295 74.8398 359.49 74.5062 358.822 73.8389C358.155 73.1715 357.821 72.3659 357.821 71.4219C357.821 71.0801 357.87 70.7505 357.968 70.4331C357.504 70.1157 356.804 69.957 355.868 69.957C354.721 69.957 353.862 70.0954 353.292 70.3721C352.731 70.6488 352.45 71.1615 352.45 71.9102C352.45 72.3822 352.568 72.8013 352.804 73.1675C353.04 73.5256 353.362 73.8226 353.769 74.0586C354.175 74.2865 354.647 74.5062 355.185 74.7178C355.73 74.9212 356.308 75.0962 356.918 75.2427C357.528 75.381 358.155 75.5519 358.798 75.7554C359.441 75.9588 360.067 76.1663 360.678 76.3779C361.288 76.5895 361.862 76.8703 362.399 77.2202C362.944 77.562 363.42 77.9486 363.827 78.3799C364.234 78.8112 364.556 79.3524 364.792 80.0034C365.028 80.6463 365.146 81.3665 365.146 82.1641C365.146 83.3034 364.954 84.3084 364.572 85.1792C364.197 86.0418 363.693 86.7417 363.058 87.2788C362.431 87.8159 361.65 88.2554 360.714 88.5972C359.778 88.9308 358.806 89.1628 357.797 89.293C356.788 89.4232 355.665 89.4883 354.428 89.4883C351.929 89.4883 349.915 89.0122 348.385 88.0601C346.863 87.1079 346.103 85.7936 346.103 84.1172C346.103 83.1732 346.436 82.3675 347.104 81.7002C347.771 81.0329 348.576 80.6992 349.521 80.6992C350.465 80.6992 351.27 81.0329 351.938 81.7002C352.605 82.3675 352.938 83.1732 352.938 84.1172C352.938 84.459 352.89 84.7886 352.792 85.106ZM426.396 58.2383C430.668 58.2383 434.086 59.3776 436.649 61.6562C437.699 62.584 438.448 63.5199 438.896 64.4639C439.351 65.3997 439.579 66.5798 439.579 68.0039C439.579 69.0863 439.197 70.0099 438.432 70.7749C437.675 71.5317 436.755 71.9102 435.673 71.9102C434.59 71.9102 433.667 71.5317 432.902 70.7749C432.145 70.0099 431.767 69.0863 431.767 68.0039C431.767 67.4505 431.876 66.9297 432.096 66.4414C432.316 65.945 432.621 65.5137 433.012 65.1475C432.426 64.057 431.632 63.2839 430.631 62.8281C429.639 62.3724 428.389 62.1445 426.884 62.1445C425.899 62.1445 424.984 62.3439 424.137 62.7427C423.299 63.1414 422.571 63.6989 421.952 64.415C421.342 65.1312 420.817 65.9775 420.377 66.9541C419.938 67.9307 419.608 69.0049 419.389 70.1768C419.177 71.3405 419.071 72.5693 419.071 73.8633C419.071 75.141 419.201 76.3698 419.462 77.5498C419.722 78.7298 420.101 79.804 420.597 80.7725C421.094 81.7409 421.675 82.5872 422.343 83.3115C423.01 84.0277 423.775 84.5851 424.638 84.9839C425.508 85.3826 426.42 85.582 427.372 85.582C428.756 85.582 430.041 85.2118 431.229 84.4712C432.426 83.7306 433.415 82.693 434.196 81.3584C434.985 80.0156 435.478 78.4938 435.673 76.793L439.579 77.7695C439.384 78.7217 439.156 79.6087 438.896 80.4307C438.635 81.2445 438.31 82.0583 437.919 82.8721C437.528 83.6777 437.085 84.4061 436.588 85.0571C436.092 85.7082 435.506 86.3145 434.831 86.876C434.155 87.4375 433.41 87.9095 432.597 88.292C431.783 88.6663 430.851 88.9593 429.801 89.1709C428.751 89.3825 427.616 89.4883 426.396 89.4883C424.939 89.4883 423.547 89.3337 422.221 89.0244C420.902 88.7233 419.706 88.3001 418.632 87.7549C417.566 87.2096 416.581 86.5586 415.678 85.8018C414.774 85.0449 413.993 84.2108 413.334 83.2993C412.675 82.3797 412.113 81.4072 411.649 80.3818C411.194 79.3483 410.852 78.2863 410.624 77.1958C410.396 76.0972 410.282 74.9863 410.282 73.8633C410.282 72.7402 410.396 71.6335 410.624 70.543C410.852 69.4443 411.194 68.3823 411.649 67.3569C412.113 66.3234 412.675 65.3509 413.334 64.4395C413.993 63.5199 414.774 62.6816 415.678 61.9248C416.581 61.168 417.566 60.5169 418.632 59.9717C419.706 59.4264 420.902 59.0033 422.221 58.7021C423.547 58.3929 424.939 58.2383 426.396 58.2383ZM477.528 74.2905V85.0938H479.97V89H472.365L471.278 86.4609C470.448 87.6491 469.484 88.4629 468.385 88.9023C467.295 89.3418 465.769 89.5615 463.808 89.5615C462.79 89.5615 461.842 89.3825 460.963 89.0244C460.093 88.6745 459.348 88.1943 458.729 87.584C458.119 86.9736 457.639 86.2412 457.289 85.3867C456.947 84.5322 456.776 83.6167 456.776 82.6401C456.776 80.9556 457.436 79.5599 458.754 78.4531C460.072 77.3382 461.757 76.7808 463.808 76.7808C465.46 76.7808 466.827 76.9395 467.909 77.2568C468.992 77.5661 469.919 78.0625 470.692 78.7461V73.5703C470.692 72.8379 470.591 72.2275 470.387 71.7393C470.192 71.2428 469.895 70.8644 469.496 70.604C469.097 70.3354 468.65 70.1483 468.153 70.0425C467.657 69.9367 467.063 69.8838 466.371 69.8838C465.818 69.8838 465.317 70.0018 464.87 70.2378C465.122 70.7668 465.248 71.3242 465.248 71.9102C465.248 72.9925 464.866 73.9162 464.101 74.6812C463.344 75.438 462.424 75.8164 461.342 75.8164C460.259 75.8164 459.336 75.438 458.571 74.6812C457.814 73.9162 457.436 72.9925 457.436 71.9102C457.436 71.3568 457.541 70.8359 457.753 70.3477C457.973 69.8594 458.274 69.4321 458.656 69.0659C458.982 68.7241 459.319 68.4189 459.669 68.1504C460.019 67.8737 460.459 67.6011 460.988 67.3325C461.525 67.0558 462.107 66.828 462.733 66.6489C463.36 66.4699 464.109 66.3275 464.979 66.2217C465.858 66.1077 466.819 66.0508 467.86 66.0508C469.211 66.0508 470.481 66.2502 471.669 66.6489C472.857 67.0477 473.882 67.6011 474.745 68.3091C475.608 69.0171 476.287 69.8879 476.784 70.9214C477.28 71.9549 477.528 73.078 477.528 74.2905ZM470.692 83.5801V81.8955C470.188 81.4154 469.618 81.0125 468.983 80.687C468.357 80.3534 467.775 80.1865 467.238 80.1865C466.082 80.1865 465.268 80.3818 464.796 80.7725C464.324 81.1549 464.088 81.7775 464.088 82.6401C464.088 83.6737 464.292 84.4346 464.699 84.9229C465.106 85.4111 465.862 85.6553 466.969 85.6553C467.596 85.6553 468.247 85.4559 468.922 85.0571C469.606 84.6502 470.196 84.1579 470.692 83.5801ZM505.211 89.5615C503.307 89.5615 501.692 89.0732 500.365 88.0967C499.039 87.1201 498.05 85.757 497.399 84.0073C496.756 82.2576 496.435 80.1743 496.435 77.7573C496.435 75.9914 496.662 74.376 497.118 72.9111C497.582 71.4463 498.225 70.2134 499.047 69.2124C499.877 68.2033 500.874 67.4261 502.038 66.8809C503.209 66.3275 504.491 66.0508 505.883 66.0508C506.583 66.0508 507.242 66.1159 507.86 66.2461C508.479 66.3682 509.004 66.5228 509.435 66.71C509.875 66.8971 510.29 67.1291 510.68 67.4058C511.071 67.6825 511.384 67.9429 511.62 68.187C511.864 68.4312 512.1 68.7038 512.328 69.0049V62.6328H509.887V58.7266H519.164V85.0938H521.605V89H514.354L512.877 86.168C512.56 86.6074 512.202 87.0103 511.803 87.3765C510.192 88.8332 507.995 89.5615 505.211 89.5615ZM512.328 73.1431C511.4 71.4341 510.139 70.5796 508.544 70.5796C506.933 70.5796 505.732 71.2103 504.943 72.4717C504.162 73.7331 503.771 75.5234 503.771 77.8428C503.771 78.9333 503.897 79.9424 504.149 80.8701C504.41 81.7897 504.752 82.5547 505.175 83.165C505.606 83.7754 506.098 84.2515 506.652 84.5933C507.205 84.9269 507.783 85.0938 508.385 85.0938C509.199 85.0938 509.919 84.87 510.546 84.4224C511.181 83.9666 511.775 83.2952 512.328 82.4082V73.1431ZM538.827 66.5391H546.408L547.946 69.5054C549.386 67.2023 551.425 66.0508 554.062 66.0508C555.827 66.0508 557.227 66.596 558.261 67.6865C559.302 68.7689 559.823 70.1768 559.823 71.9102C559.823 72.9925 559.441 73.9162 558.676 74.6812C557.919 75.438 556.999 75.8164 555.917 75.8164C554.835 75.8164 553.911 75.438 553.146 74.6812C552.389 73.9162 552.011 72.9925 552.011 71.9102C552.011 71.4707 552.08 71.0475 552.218 70.6406C551.999 70.5104 551.767 70.4453 551.522 70.4453C550.977 70.4453 550.412 70.8034 549.826 71.5195C549.248 72.2275 548.69 73.2896 548.153 74.7056L548.104 85.0938H553.476V89H538.827V85.0938H541.269V70.4453H538.827V66.5391ZM596.796 74.2905V85.0938H599.237V89H591.632L590.546 86.4609C589.716 87.6491 588.751 88.4629 587.653 88.9023C586.562 89.3418 585.036 89.5615 583.075 89.5615C582.058 89.5615 581.11 89.3825 580.231 89.0244C579.36 88.6745 578.616 88.1943 577.997 87.584C577.387 86.9736 576.907 86.2412 576.557 85.3867C576.215 84.5322 576.044 83.6167 576.044 82.6401C576.044 80.9556 576.703 79.5599 578.021 78.4531C579.34 77.3382 581.024 76.7808 583.075 76.7808C584.727 76.7808 586.094 76.9395 587.177 77.2568C588.259 77.5661 589.187 78.0625 589.96 78.7461V73.5703C589.96 72.8379 589.858 72.2275 589.655 71.7393C589.459 71.2428 589.162 70.8644 588.764 70.604C588.365 70.3354 587.917 70.1483 587.421 70.0425C586.924 69.9367 586.33 69.8838 585.639 69.8838C585.085 69.8838 584.585 70.0018 584.137 70.2378C584.389 70.7668 584.516 71.3242 584.516 71.9102C584.516 72.9925 584.133 73.9162 583.368 74.6812C582.611 75.438 581.692 75.8164 580.609 75.8164C579.527 75.8164 578.603 75.438 577.838 74.6812C577.082 73.9162 576.703 72.9925 576.703 71.9102C576.703 71.3568 576.809 70.8359 577.021 70.3477C577.24 69.8594 577.541 69.4321 577.924 69.0659C578.249 68.7241 578.587 68.4189 578.937 68.1504C579.287 67.8737 579.726 67.6011 580.255 67.3325C580.792 67.0558 581.374 66.828 582.001 66.6489C582.628 66.4699 583.376 66.3275 584.247 66.2217C585.126 66.1077 586.086 66.0508 587.128 66.0508C588.479 66.0508 589.748 66.2502 590.937 66.6489C592.125 67.0477 593.15 67.6011 594.013 68.3091C594.875 69.0171 595.555 69.8879 596.051 70.9214C596.548 71.9549 596.796 73.078 596.796 74.2905ZM589.96 83.5801V81.8955C589.455 81.4154 588.886 81.0125 588.251 80.687C587.624 80.3534 587.042 80.1865 586.505 80.1865C585.35 80.1865 584.536 80.3818 584.064 80.7725C583.592 81.1549 583.356 81.7775 583.356 82.6401C583.356 83.6737 583.559 84.4346 583.966 84.9229C584.373 85.4111 585.13 85.6553 586.237 85.6553C586.863 85.6553 587.514 85.4559 588.19 85.0571C588.874 84.6502 589.464 84.1579 589.96 83.5801ZM632.548 66.0508C633.687 66.0508 634.684 66.2054 635.539 66.5146C636.393 66.8239 637.093 67.2511 637.638 67.7964C638.183 68.3335 638.623 69.0212 638.957 69.8594C639.298 70.6895 639.534 71.5846 639.665 72.5449C639.803 73.4971 639.872 74.5876 639.872 75.8164V85.0938H642.313V89H630.595V85.0938H633.036V75.3281C633.036 74.0423 632.918 73.0413 632.682 72.3252C632.454 71.609 632.121 71.1167 631.681 70.8481C631.25 70.5796 630.66 70.4453 629.911 70.4453C629.228 70.4453 628.528 70.7342 627.812 71.312C627.095 71.8898 626.416 72.6955 625.773 73.729L625.712 85.0938H628.153V89H616.435V85.0938H618.876V70.4453H616.435V66.5391H624.015L625.724 69.8472C626.025 69.3019 626.371 68.8136 626.762 68.3823C627.16 67.9429 627.632 67.5441 628.178 67.186C628.731 66.8198 629.378 66.5391 630.119 66.3438C630.859 66.1484 631.669 66.0508 632.548 66.0508ZM666.444 85.106C666.908 85.4233 667.608 85.582 668.544 85.582C669.382 85.582 670.062 85.5332 670.583 85.4355C671.111 85.3379 671.51 85.1792 671.779 84.9595C672.047 84.7316 672.226 84.4834 672.316 84.2148C672.405 83.9382 672.45 83.5801 672.45 83.1406C672.45 82.6198 672.312 82.1722 672.035 81.7979C671.758 81.4235 671.384 81.1224 670.912 80.8945C670.44 80.6667 669.899 80.4673 669.289 80.2964C668.678 80.1174 668.035 79.9505 667.36 79.7959C666.684 79.6331 666.009 79.4582 665.333 79.271C664.658 79.0757 664.015 78.8234 663.405 78.5142C662.794 78.1968 662.253 77.8265 661.781 77.4033C661.309 76.972 660.935 76.4146 660.658 75.731C660.382 75.0474 660.243 74.262 660.243 73.375C660.243 72.5612 660.341 71.8206 660.536 71.1533C660.731 70.486 660.992 69.9204 661.317 69.4565C661.643 68.9845 662.054 68.5736 662.55 68.2236C663.047 67.8737 663.563 67.5929 664.101 67.3813C664.646 67.1698 665.256 66.9989 665.932 66.8687C666.615 66.7384 667.274 66.653 667.909 66.6123C668.544 66.5635 669.236 66.5391 669.984 66.5391C671.612 66.5391 673.032 66.7466 674.245 67.1616C675.465 67.5767 676.426 68.1341 677.125 68.834C677.5 69.1514 677.789 69.5379 677.992 69.9937C678.204 70.4412 678.31 70.9173 678.31 71.4219C678.31 72.3659 677.976 73.1715 677.309 73.8389C676.641 74.5062 675.836 74.8398 674.892 74.8398C673.948 74.8398 673.142 74.5062 672.475 73.8389C671.807 73.1715 671.474 72.3659 671.474 71.4219C671.474 71.0801 671.522 70.7505 671.62 70.4331C671.156 70.1157 670.456 69.957 669.521 69.957C668.373 69.957 667.514 70.0954 666.945 70.3721C666.383 70.6488 666.103 71.1615 666.103 71.9102C666.103 72.3822 666.221 72.8013 666.457 73.1675C666.693 73.5256 667.014 73.8226 667.421 74.0586C667.828 74.2865 668.3 74.5062 668.837 74.7178C669.382 74.9212 669.96 75.0962 670.57 75.2427C671.181 75.381 671.807 75.5519 672.45 75.7554C673.093 75.9588 673.72 76.1663 674.33 76.3779C674.94 76.5895 675.514 76.8703 676.051 77.2202C676.597 77.562 677.073 77.9486 677.479 78.3799C677.886 78.8112 678.208 79.3524 678.444 80.0034C678.68 80.6463 678.798 81.3665 678.798 82.1641C678.798 83.3034 678.607 84.3084 678.224 85.1792C677.85 86.0418 677.345 86.7417 676.71 87.2788C676.084 87.8159 675.303 88.2554 674.367 88.5972C673.431 88.9308 672.458 89.1628 671.449 89.293C670.44 89.4232 669.317 89.4883 668.08 89.4883C665.582 89.4883 663.568 89.0122 662.038 88.0601C660.516 87.1079 659.755 85.7936 659.755 84.1172C659.755 83.1732 660.089 82.3675 660.756 81.7002C661.423 81.0329 662.229 80.6992 663.173 80.6992C664.117 80.6992 664.923 81.0329 665.59 81.7002C666.257 82.3675 666.591 83.1732 666.591 84.1172C666.591 84.459 666.542 84.7886 666.444 85.106Z" fill="black"/>
</svg>
